<svg width="46" height="30" viewBox="0 0 46 30" fill="none" xmlns="http://www.w3.org/2000/svg">
<path fill-rule="evenodd" clip-rule="evenodd" d="M-7.2855e-08 14.9997C-3.26183e-08 14.0792 0.74619 13.333 1.66666 13.333L41.6681 13.333C42.5886 13.333 43.3347 14.0792 43.3347 14.9997C43.3347 15.9201 42.5886 16.6663 41.6681 16.6663L1.66666 16.6663C0.74619 16.6663 -1.13092e-07 15.9201 -7.2855e-08 14.9997Z" fill="#605E5E"/>
<path fill-rule="evenodd" clip-rule="evenodd" d="M31.7113 0.386359C32.4184 -0.202926 33.4693 -0.107406 34.0586 0.599709L44.5773 13.2217C45.4358 14.2518 45.4358 15.7482 44.5773 16.7783L34.0586 29.4003C33.4693 30.1074 32.4184 30.2029 31.7112 29.6136C31.0041 29.0244 30.9086 27.9734 31.4979 27.2663L41.7202 15L31.4979 2.7337C30.9086 2.02658 31.0041 0.975644 31.7113 0.386359Z" fill="#605E5E"/>
</svg>
