<svg width="55" height="28" viewBox="0 0 55 28" fill="none" xmlns="http://www.w3.org/2000/svg">
<path d="M12.3667 14.8802C12.3667 15.3037 12.3384 15.6849 12.282 16.0237H3.70576C3.77635 16.8707 4.07281 17.5342 4.59515 18.0142C5.11748 18.4942 5.75981 18.7342 6.52214 18.7342C7.62328 18.7342 8.40679 18.2613 8.87266 17.3154H12.0702C11.7314 18.4448 11.082 19.3765 10.122 20.1106C9.16206 20.8306 7.98327 21.1906 6.58567 21.1906C5.4563 21.1906 4.43986 20.9435 3.53636 20.4494C2.64697 19.9412 1.94817 19.2283 1.43995 18.3107C0.945852 17.3931 0.698801 16.3343 0.698801 15.1343C0.698801 13.9202 0.945852 12.8544 1.43995 11.9368C1.93406 11.0191 2.6258 10.3133 3.51518 9.81918C4.40456 9.32508 5.42806 9.07803 6.58567 9.07803C7.70093 9.07803 8.69619 9.31802 9.57146 9.79801C10.4608 10.278 11.1455 10.9627 11.6255 11.8521C12.1196 12.7273 12.3667 13.7367 12.3667 14.8802ZM9.29617 14.0332C9.28205 13.2708 9.00677 12.6638 8.47032 12.212C7.93386 11.7462 7.27741 11.5132 6.50097 11.5132C5.76687 11.5132 5.14572 11.7391 4.6375 12.1909C4.1434 12.6285 3.83988 13.2426 3.72694 14.0332H9.29617ZM13.7682 15.092C13.7682 13.9061 14.0012 12.8544 14.467 11.9368C14.947 11.0191 15.5894 10.3133 16.394 9.81918C17.2128 9.32508 18.1234 9.07803 19.1257 9.07803C20.001 9.07803 20.7633 9.2545 21.4127 9.60742C22.0762 9.96035 22.6056 10.405 23.0009 10.9415V9.26861H25.9867V21H23.0009V19.2848C22.6197 19.8353 22.0903 20.2941 21.4127 20.6612C20.7492 21.0141 19.9798 21.1906 19.1045 21.1906C18.1163 21.1906 17.2128 20.9365 16.394 20.4283C15.5894 19.92 14.947 19.2071 14.467 18.2895C14.0012 17.3578 13.7682 16.2919 13.7682 15.092ZM23.0009 15.1343C23.0009 14.4143 22.8597 13.8002 22.5774 13.292C22.295 12.7697 21.9139 12.3744 21.4339 12.1062C20.9539 11.8238 20.4386 11.6827 19.888 11.6827C19.3375 11.6827 18.8292 11.8168 18.3634 12.085C17.8975 12.3532 17.5163 12.7485 17.2199 13.2708C16.9375 13.7791 16.7964 14.3861 16.7964 15.092C16.7964 15.7978 16.9375 16.419 17.2199 16.9554C17.5163 17.4778 17.8975 17.8801 18.3634 18.1624C18.8434 18.4448 19.3516 18.586 19.888 18.586C20.4386 18.586 20.9539 18.4518 21.4339 18.1836C21.9139 17.9013 22.295 17.506 22.5774 16.9978C22.8597 16.4754 23.0009 15.8543 23.0009 15.1343ZM32.3338 11.7038V17.3789C32.3338 17.7742 32.4255 18.0636 32.6091 18.2471C32.8067 18.4166 33.1314 18.5013 33.5831 18.5013H34.9596V21H33.0961C30.5974 21 29.348 19.7859 29.348 17.3578V11.7038H27.9504V9.26861H29.348V6.36753H32.3338V9.26861H34.9596V11.7038H32.3338ZM40.0565 5.32992V21H37.0919V5.32992H40.0565ZM54.2087 9.26861L46.9454 26.5481H43.7902L46.3313 20.7035L41.6303 9.26861H44.9549L47.983 17.4636L51.0535 9.26861H54.2087Z" fill="#6C5FBC"/>
</svg>
