<svg width="46" height="43" viewBox="0 0 46 43" fill="none" xmlns="http://www.w3.org/2000/svg">
<rect x="3.67419" y="4.97852" width="42.2674" height="37.3367" rx="6.96951" fill="#6C5FBC"/>
<rect x="1.0075" y="1.0075" width="40.2524" height="35.3217" rx="5.96201" fill="#DBD9EE" stroke="#6C5FBC" stroke-width="2.01499"/>
<path d="M32.624 12.0518L9.72243 11.9505" stroke="#6C5FBC" stroke-width="2.08432" stroke-linecap="round" stroke-linejoin="round"/>
<path d="M32.6096 16.6368L27.5162 16.6142C25.4095 16.6049 23.7056 14.5428 23.7133 12.0119C23.7211 9.48095 25.4376 7.43398 27.5443 7.4433L32.6377 7.46582" stroke="#6C5FBC" stroke-width="2.08432" stroke-linecap="round" stroke-linejoin="round"/>
<path d="M17.3614 26.7221L10.7071 26.648C10.1618 26.6456 9.70495 26.1076 9.69456 25.4525L9.65028 23.7254C9.63999 23.0405 10.1003 22.462 10.6703 22.4645L17.2503 22.5383L17.3614 26.7221Z" stroke="#6C5FBC" stroke-width="2.08432" stroke-linecap="round" stroke-linejoin="round"/>
<path d="M27.8133 29.2108L18.4075 29.0948C17.8622 29.0924 17.4053 28.5544 17.395 27.8993L17.2751 22.5242L32.5549 22.7108L32.5652 23.3957C32.642 26.6417 30.5024 29.2525 27.8133 29.2108Z" stroke="#6C5FBC" stroke-width="2.08432" stroke-linecap="round" stroke-linejoin="round"/>
</svg>
